Simulation
nRows=35
nColumns=15
endheader
time  TH_x TH_y TH_z SC_y  SC_z  SC_x  AC_y  AC_z  AC_x  GH_y  GH_z  GH_yy  EL_x  PS_y
7.203000000000001  0.000000  0.000000  0.000000  -30.462192409443695  3.718234083582689  -12.360005014603193  55.03344509767045  14.972127981284022  8.087809531929937  43.19045553221636  18.16619523358402  18.017081075888814  13.188317371356641  120.000000
7.251020000000001  0.000000  0.000000  0.000000  -30.33807467919557  3.39985556346263  -13.3845971116891  54.960492177377745  15.653146157009743  8.379856950318635  43.26379014154353  21.59745930563447  16.498991798995224  12.59310660972422  120.000000
7.2990400000000015  0.000000  0.000000  0.000000  -30.370291412141725  3.084311257682041  -14.371797253703525  54.952974116220894  16.497715082221784  8.6969746086933  43.44811486560678  25.353106610310807  14.746224541941247  12.103740811739495  120.000000
7.347060000000001  0.000000  0.000000  0.000000  -30.555281578563793  2.771243355052273  -15.301290127459731  55.01123661330716  17.45703883933181  9.050373106507688  43.69571850575633  29.372651925772868  12.878352917217702  11.710841748896163  120.000000
7.395080000000001  0.000000  0.000000  0.000000  -30.870290033873324  2.4705863694974477  -16.157828525836955  55.13352447976993  18.488891118812376  9.444620452860544  43.993033083992685  33.5876419799052  10.97633644589709  11.393685643158015  120.000000
7.443100000000001  0.000000  0.000000  0.000000  -31.277107552010246  2.2098977889820612  -16.93266858589375  55.31872543197324  19.558809306387023  9.871089094111  44.339771075556804  37.92592199097532  9.092491938633213  11.133027092341914  120.000000
7.491120000000001  0.000000  0.000000  0.000000  -31.74191422943903  2.019696529700278  -17.620484979569344  55.55840955115241  20.6357226017148  10.31785356646897  44.735752700243815  42.316040878252416  7.252147548795328  10.9157526802813  120.000000
7.5391400000000015  0.000000  0.000000  0.000000  -32.24699155724807  1.9238342006886715  -18.214646531358344  55.83374216360379  21.691728543154856  10.778154733341937  45.173180073570386  46.69259521738715  5.46120588771546  10.734153386975587  120.000000
7.587160000000001  0.000000  0.000000  0.000000  -32.78630631422947  1.9360701619625982  -18.70655388268916  56.116566468839686  22.702899821210043  11.254825984500922  45.63289787027282  50.99803358654223  3.7170291855836872  10.583797379114499  120.000000
7.635180000000001  0.000000  0.000000  0.000000  -33.36035228761639  2.0606134148528503  -19.087518509181557  56.37560367540384  23.648775477263275  11.757640373399338  46.08676230415259  55.183425075480514  2.0140837574532933  10.461065071985026  120.000000
7.683200000000001  0.000000  0.000000  0.000000  -33.96753898127758  2.294494650271339  -19.359448083572723  56.58644592171386  24.51542161796994  12.296456777868533  46.503086201400635  59.20347644031174  0.34675203251346937  10.36433945984212  120.000000
7.731220000000001  0.000000  0.000000  0.000000  -34.60110228646165  2.630344051826169  -19.539162385359678  56.73805742826674  25.295093972405375  12.874760131898885  46.85147479764322  63.01132150968546  -1.291892259675121  10.293792826793727  120.000000
7.7792400000000015  0.000000  0.000000  0.000000  -35.25063504946714  3.05970156419238  -19.650438802099963  56.832116750973114  25.985064323030354  13.487544746721008  47.10437871810763  66.55788881526892  -2.9098740150093727  10.250482891455471  120.000000
7.827260000000001  0.000000  0.000000  0.000000  -35.906217042002304  3.571384258296432  -19.716740312723026  56.87930325831328  26.589725590748017  14.128298406905301  47.23990191758327  69.79504474037734  -4.515220732027043  10.235557276552182  120.000000
7.875280000000001  0.000000  0.000000  0.000000  -36.55755097047208  4.1502050343503525  -19.754105173848963  56.89717380463007  27.121195259731813  14.793088116316033  47.2416033202509  72.67959630755529  -6.1124459947000656  10.248624238211402  120.000000
7.923300000000001  0.000000  0.000000  0.000000  -37.19390595702676  4.77430493721183  -19.76706945031663  56.90907115315322  27.59995502530247  15.478920381130568  47.09824699612475  75.17876611827954  -7.693294813581861  10.284124834122093  120.000000
7.971320000000001  0.000000  0.000000  0.000000  -37.803601370421745  5.420202442640896  -19.74606344588882  56.93846034514793  28.05468215733698  16.17702700467961  46.80134524256822  77.2722070472259  -9.227871306042706  10.331040770919502  120.000000
8.019340000000001  0.000000  0.000000  0.000000  -38.375746199291115  6.062658939140114  -19.673772093390106  56.99963721637243  28.517821197542975  16.872047172921707  46.34938685993033  78.9528871923136  -10.670130110670225  10.374974607251673  120.000000
8.06736  0.000000  0.000000  0.000000  -38.896588939047504  6.672180342831373  -19.537261015772273  57.09379922190487  29.01664875127083  17.54378559428463  45.75504627534857  80.22990283864901  -11.966911623553901  10.402324806912164  120.000000
8.115380000000002  0.000000  0.000000  0.000000  -39.34653346880312  7.214155505960417  -19.33942154908193  57.21089852332494  29.5605892084372  18.168278802877207  45.05899468245561  81.13395315840224  -13.065055366746035  10.407441328077324  120.000000
8.163400000000001  0.000000  0.000000  0.000000  -39.70375004271734  7.6513644861822625  -19.108692410761225  57.333403363430115  30.129162651187272  18.716059462313428  44.334137670828  81.72920214557509  -13.919531292338927  10.393302330392485  120.000000
8.21142  0.000000  0.000000  0.000000  -39.95703318167756  7.952993078102606  -18.89891672247041  57.43512922939521  30.674275883140734  19.152965139800703  43.6764721716274  82.11065997193549  -14.506668076366196  10.365843012099543  120.000000
8.259440000000001  0.000000  0.000000  0.000000  -40.107894787670986  8.103836812991156  -18.762427464574795  57.48965130075578  31.14711668569542  19.451371301834772  43.18992565085848  82.35322251938206  -14.855957396033116  10.332209045552057  120.000000
8.30746  0.000000  0.000000  0.000000  -40.15766798421524  8.106267087546266  -18.724721249094838  57.483162574657484  31.51788401606339  19.596510880096883  42.949364643622076  82.47126458249456  -15.017885460620573  10.302265413553567  120.000000
8.355480000000002  0.000000  0.000000  0.000000  -40.10379005832502  7.9655394536895  -18.798643769873262  57.41289516209645  31.76424532460943  19.58357025631122  42.98246514604993  82.45292586797956  -15.000272338376563  10.28198964493189  120.000000
8.403500000000001  0.000000  0.000000  0.000000  -39.944342810020686  7.68418113831081  -19.00342290429903  57.278630156548545  31.861027321574255  19.40997010062975  43.29906247185954  82.3022392404694  -14.779184675826404  10.263438585828746  120.000000
8.451520000000002  0.000000  0.000000  0.000000  -39.67548375772896  7.26844243909153  -19.343038344325723  57.088751753426955  31.798649611930173  19.082228260335025  43.8826662041932  81.9932554719054  -14.322994742618269  10.231692967133451  120.000000
8.499540000000001  0.000000  0.000000  0.000000  -39.2913641294545  6.737908165674865  -19.780570891099586  56.8600962260013  31.603703272583193  18.628109014674255  44.66636308108728  81.4116013899732  -13.614557484850804  10.175196090663325  120.000000
8.54756  0.000000  0.000000  0.000000  -38.79261190262193  6.121015740003668  -20.267135219726995  56.60489820284976  31.315896335292237  18.085273697658298  45.56836589348643  80.41340392616495  -12.667838122515601  10.087953742495724  120.000000
8.595580000000002  0.000000  0.000000  0.000000  -38.190651552739084  5.446265707009235  -20.771345070823703  56.32727926761499  30.960258229409582  17.48553740731894  46.52410830188205  78.89538987239277  -11.511493184218768  9.973872890126602  120.000000
8.643600000000001  0.000000  0.000000  0.000000  -37.504188864224695  4.744925748614469  -21.278879382270883  56.02120738909677  30.54843014964765  16.855257158199596  47.48280078870218  76.79769411768677  -10.178754051997593  9.852699113875227  120.000000
8.691620000000002  0.000000  0.000000  0.000000  -36.76102824721554  4.049364746076511  -21.78613125243657  55.67288391780911  30.085536728816017  16.216883740352195  48.40059743302424  74.10180284689592  -8.702146582014787  9.75493558570827  120.000000
8.739640000000001  0.000000  0.000000  0.000000  -35.99498617094772  3.393378992241763  -22.293034239006747  55.26337456933798  29.57946118084814  15.59025332124777  49.23500803016144  70.82853935730103  -7.106088228669962  9.715004061888173  120.000000
8.78766  0.000000  0.000000  0.000000  -35.23949330608859  2.809177656847956  -22.796517433764674  54.77735439253217  29.048873882386406  14.993391233908365  49.9454561859794  67.03565588504974  -5.399653077321634  9.765179284905678  120.000000
8.835680000000002  0.000000  0.000000  0.000000  -34.52018509050483  2.3239287909401605  -23.284508795626078  54.20932680281109  28.523548575192013  14.444131916987901  50.49547668041001  62.81142001541587  -3.5774282214161826  9.934329318484176  120.000000
